<?xml version="1.0" standalone="no"?>
<!DOCTYPE svg PUBLIC "-//W3C//DTD SVG 20010904//EN"
 "http://www.w3.org/TR/2001/REC-SVG-20010904/DTD/svg10.dtd">
<svg version="1.0" xmlns="http://www.w3.org/2000/svg"
 width="1000.000000pt" height="1000.000000pt" viewBox="0 0 1000.000000 1000.000000"
 preserveAspectRatio="xMidYMid meet">
<metadata>
Created by potrace 1.14, written by Peter Selinger 2001-2017
</metadata>
<g transform="translate(0.000000,1000.000000) scale(0.100000,-0.100000)"
fill="#000000" stroke="none">
<path d="M4564 9485 c-760 -78 -1441 -322 -2069 -740 -1127 -750 -1852 -1967
-1980 -3325 -21 -219 -16 -753 9 -950 130 -1022 571 -1933 1281 -2645 728
-731 1635 -1172 2675 -1302 117 -15 217 -18 525 -18 340 0 398 3 550 23 177
24 422 69 441 80 7 5 -26 164 -100 489 -61 265 -114 485 -117 488 -4 3 -56 -3
-115 -14 -173 -32 -337 -51 -501 -58 l-153 -6 0 1741 c0 958 2 1742 5 1742 3
0 167 -148 365 -330 198 -182 363 -330 367 -330 4 1 499 574 1098 1275 600
700 1092 1274 1095 1274 17 2 197 -332 270 -503 189 -440 280 -888 280 -1376
0 -796 -247 -1512 -746 -2160 -113 -148 -435 -469 -584 -584 -189 -146 -394
-277 -571 -366 l-79 -40 34 -72 c63 -137 398 -833 403 -838 7 -7 204 97 378
201 1112 663 1891 1801 2115 3094 42 242 52 366 57 679 7 412 -15 668 -88
1011 -170 805 -540 1523 -1103 2137 -112 122 -360 358 -377 358 -4 0 -517
-594 -1139 -1320 l-1131 -1319 -829 759 c-456 418 -832 760 -835 760 -3 0 -5
-1269 -5 -2820 0 -1638 -4 -2820 -9 -2820 -19 0 -242 81 -346 125 -426 182
-760 410 -1100 750 -286 286 -487 560 -655 894 -248 495 -370 1012 -370 1571
0 796 247 1512 746 2160 113 148 435 469 584 584 543 419 1138 660 1805 731
284 30 679 16 965 -35 239 -43 537 -131 740 -219 l95 -41 21 28 c12 15 160
194 328 397 168 204 306 374 306 378 0 11 -253 131 -412 195 -350 143 -756
247 -1158 298 -174 22 -785 28 -966 9z"/>
</g>
</svg>
