<?xml version="1.0" encoding="UTF-8"?>
<!-- 2021-05-23 19:51:43 Generated by QCAD 3.26.2 SVG Exporter -->
<svg width="900" height="900" viewBox="-1050 -1050 2100 2100" version="1.1" xmlns="http://www.w3.org/2000/svg" style="stroke-linecap:round;stroke-linejoin:round;fill:black;background-color: white;">
    <g transform="scale(1,-1)">
        <!-- Polyline -->
        <path d="M0.4422,1.7108 A1,1 0 0 0 0,3.6613 L149.281,-133.157 L588.4154,379.1665 A700,700 0 0 0 303.6487,-630.7119 L389.9984,-811.1111 A900,900 0 0 1 585.7122,683.3309 L131.9878,153.9857 L-200,458.2576 L-200,-670.8204 A700,700 0 1 0 288.2588,637.8925 L419.2158,796.4032 A900,900 0 1 1 200,-877.4964 L155.5556,-682.4972 A750,750 0 0 0 0,-700 L0,3.6613" style="stroke:#000000;stroke-width:0.25;"/>
        <!-- Polyline -->
        <path d="Z" style="stroke:#000000;stroke-width:0.25;"/>
    </g>
</svg>
